<svg width="94" height="66" viewBox="0 0 94 66" fill="none" xmlns="http://www.w3.org/2000/svg">
<rect width="94" height="66" fill="#F5F5F5"/>
<path d="M9.4375 25.125C9.64583 26 9.75 27.1146 9.75 28.4688V42.8438C9.75 43.8438 9.54167 44.6146 9.125 45.1562C8.625 45.7396 7.98958 46.25 7.21875 46.6875C6.44792 47.1042 5.90625 47.3125 5.59375 47.3125C4.86458 47.3125 4.5 46.8646 4.5 45.9688V16.375C4.5 16.125 4.5625 15.9271 4.6875 15.7812C4.8125 15.6146 4.96875 15.5312 5.15625 15.5312C5.46875 15.5312 5.78125 15.8438 6.09375 16.4688C6.42708 17.0938 7.01042 18.4271 7.84375 20.4688C8.71875 22.6562 9.25 24.2083 9.4375 25.125ZM17.125 39.3438L4.6875 7C4.52083 6.60417 4.4375 6.21875 4.4375 5.84375C4.4375 5.34375 4.63542 4.875 5.03125 4.4375C5.51042 3.85417 6.14583 3.39583 6.9375 3.0625C7.72917 2.70833 8.34375 2.53125 8.78125 2.53125C9.23958 2.53125 9.59375 2.63542 9.84375 2.84375C10.1146 3.05208 10.3646 3.4375 10.5938 4L21.1562 32.4062C21.5312 33.4271 21.7188 34.2604 21.7188 34.9062C21.7188 35.4271 21.5938 36.0521 21.3438 36.7812C20.8438 38.0521 20.3542 39.0521 19.875 39.7812C19.4375 40.4688 18.9688 40.8125 18.4688 40.8125C18.2188 40.8125 17.9896 40.7083 17.7812 40.5C17.5729 40.2917 17.3542 39.9062 17.125 39.3438ZM33.8125 24.7188L27.2812 41.6875C26.5938 43.3958 25.5104 44.7604 24.0312 45.7812C22.5938 46.8021 21.4792 47.3125 20.6875 47.3125C20.0625 47.3125 19.75 47.0208 19.75 46.4375C19.75 46.1875 19.8542 45.8229 20.0625 45.3438L32.8438 11.4688C33.2188 10.6979 33.5208 10.2604 33.75 10.1562C33.875 10.0938 34 10.0625 34.125 10.0625C34.6042 10.0625 34.9062 10.4688 35.0312 11.2812C35.1562 12.0104 35.2188 13.6979 35.2188 16.3438C35.2188 17.9896 35.125 19.4375 34.9375 20.6875C34.7708 21.9167 34.3958 23.2604 33.8125 24.7188ZM43.375 3.875V42.6562C43.375 43.6771 43.1667 44.4375 42.75 44.9375C42.2292 45.5625 41.4792 46.1146 40.5 46.5938C39.5417 47.0729 38.7604 47.3125 38.1562 47.3125C37.4479 47.3125 37.0938 46.8646 37.0938 45.9688V7.1875C37.0938 6.3125 37.3021 5.61458 37.7188 5.09375C38.2604 4.44792 39.0104 3.86458 39.9688 3.34375C40.9271 2.80208 41.6979 2.53125 42.2812 2.53125C43.0104 2.53125 43.375 2.97917 43.375 3.875ZM65.625 38.4688V7.1875C65.625 6.3125 65.8438 5.61458 66.2812 5.09375C66.8229 4.44792 67.5625 3.86458 68.5 3.34375C69.4375 2.80208 70.2083 2.53125 70.8125 2.53125C71.5417 2.53125 71.9062 2.97917 71.9062 3.875V38.4688C71.9062 39.2188 71.6458 39.7188 71.125 39.9688C70.625 40.1979 69.8438 40.3125 68.7812 40.3125C67.6146 40.3125 66.7917 40.1979 66.3125 39.9688C65.8542 39.7188 65.625 39.2188 65.625 38.4688ZM66.9062 41.875H88.0938C88.9896 41.875 89.4375 42.1979 89.4375 42.8438C89.4375 43.1354 89.2188 43.6667 88.7812 44.4375C88.3646 45.2083 87.875 45.8542 87.3125 46.375C86.8542 46.7917 86.0938 47 85.0312 47H66.9062C66.0521 47 65.625 46.5521 65.625 45.6562V43.2188C65.625 42.3229 66.0521 41.875 66.9062 41.875Z" fill="black"/>
<path d="M5.92969 58.8984C5.96875 59.0625 5.98828 59.2715 5.98828 59.5254V62.2207C5.98828 62.4082 5.94922 62.5527 5.87109 62.6543C5.77734 62.7637 5.6582 62.8594 5.51367 62.9414C5.36914 63.0195 5.26758 63.0586 5.20898 63.0586C5.07227 63.0586 5.00391 62.9746 5.00391 62.8066V57.2578C5.00391 57.2109 5.01562 57.1738 5.03906 57.1465C5.0625 57.1152 5.0918 57.0996 5.12695 57.0996C5.18555 57.0996 5.24414 57.1582 5.30273 57.2754C5.36523 57.3926 5.47461 57.6426 5.63086 58.0254C5.79492 58.4355 5.89453 58.7266 5.92969 58.8984ZM7.37109 61.5645L5.03906 55.5C5.00781 55.4258 4.99219 55.3535 4.99219 55.2832C4.99219 55.1895 5.0293 55.1016 5.10352 55.0195C5.19336 54.9102 5.3125 54.8242 5.46094 54.7617C5.60938 54.6953 5.72461 54.6621 5.80664 54.6621C5.89258 54.6621 5.95898 54.6816 6.00586 54.7207C6.05664 54.7598 6.10352 54.832 6.14648 54.9375L8.12695 60.2637C8.19727 60.4551 8.23242 60.6113 8.23242 60.7324C8.23242 60.8301 8.20898 60.9473 8.16211 61.084C8.06836 61.3223 7.97656 61.5098 7.88672 61.6465C7.80469 61.7754 7.7168 61.8398 7.62305 61.8398C7.57617 61.8398 7.5332 61.8203 7.49414 61.7812C7.45508 61.7422 7.41406 61.6699 7.37109 61.5645ZM10.5 58.8223L9.27539 62.0039C9.14648 62.3242 8.94336 62.5801 8.66602 62.7715C8.39648 62.9629 8.1875 63.0586 8.03906 63.0586C7.92188 63.0586 7.86328 63.0039 7.86328 62.8945C7.86328 62.8477 7.88281 62.7793 7.92188 62.6895L10.3184 56.3379C10.3887 56.1934 10.4453 56.1113 10.4883 56.0918C10.5117 56.0801 10.5352 56.0742 10.5586 56.0742C10.6484 56.0742 10.7051 56.1504 10.7285 56.3027C10.752 56.4395 10.7637 56.7559 10.7637 57.252C10.7637 57.5605 10.7461 57.832 10.7109 58.0664C10.6797 58.2969 10.6094 58.5488 10.5 58.8223ZM12.293 54.9141V62.1855C12.293 62.377 12.2539 62.5195 12.1758 62.6133C12.0781 62.7305 11.9375 62.834 11.7539 62.9238C11.5742 63.0137 11.4277 63.0586 11.3145 63.0586C11.1816 63.0586 11.1152 62.9746 11.1152 62.8066V55.5352C11.1152 55.3711 11.1543 55.2402 11.2324 55.1426C11.334 55.0215 11.4746 54.9121 11.6543 54.8145C11.834 54.7129 11.9785 54.6621 12.0879 54.6621C12.2246 54.6621 12.293 54.7461 12.293 54.9141ZM16.2363 56.8184C16.5645 56.8184 16.8594 56.8613 17.1211 56.9473C17.3828 57.0332 17.6035 57.1719 17.7832 57.3633C17.9629 57.5508 18.0996 57.7949 18.1934 58.0957C18.291 58.3926 18.3398 58.752 18.3398 59.1738V62.3496C18.3398 62.4473 18.3086 62.5391 18.2461 62.625C18.1875 62.7109 18.1133 62.7871 18.0234 62.8535C17.9375 62.916 17.8438 62.9648 17.7422 63C17.6445 63.0391 17.5586 63.0586 17.4844 63.0586C17.3477 63.0586 17.2793 62.9746 17.2793 62.8066V59.3906C17.2793 58.2383 16.8223 57.6621 15.9082 57.6621C15.377 57.6621 14.8945 57.8086 14.4609 58.1016C14.2891 58.2148 14.1777 58.2715 14.127 58.2715C14.0684 58.2715 14.0391 58.2402 14.0391 58.1777C14.0391 58.0684 14.0996 57.9395 14.2207 57.791C14.752 57.1426 15.4238 56.8184 16.2363 56.8184ZM16.834 62.6719C16.6699 62.8203 16.4668 62.9414 16.2246 63.0352C15.9824 63.1328 15.75 63.1816 15.5273 63.1816C15.0078 63.1816 14.6094 63.0449 14.332 62.7715C14.0586 62.4941 13.9219 62.1543 13.9219 61.752C13.9219 61.4629 14.0215 61.2422 14.2207 61.0898C14.4004 60.9492 14.5566 60.8789 14.6895 60.8789C14.7324 60.8789 14.7695 60.8945 14.8008 60.9258C14.832 60.957 14.8477 61.0039 14.8477 61.0664C14.8477 61.5117 14.9238 61.8359 15.0762 62.0391C15.2285 62.2383 15.5 62.3379 15.8906 62.3379C16.0078 62.3379 16.1504 62.3184 16.3184 62.2793C16.4863 62.2363 16.6289 62.1797 16.7461 62.1094C16.8164 62.0664 16.8691 62.0449 16.9043 62.0449C16.959 62.0449 16.9863 62.1172 16.9863 62.2617C16.9863 62.4414 16.9355 62.5781 16.834 62.6719ZM16.7871 59.5078C16.8613 59.5469 16.9121 59.5996 16.9395 59.666C16.9668 59.7285 16.9805 59.8477 16.9805 60.0234C16.9805 60.1797 16.9668 60.293 16.9395 60.3633C16.916 60.4297 16.8711 60.4629 16.8047 60.4629C16.7617 60.4629 16.7012 60.4453 16.623 60.4102C16.2559 60.25 15.9238 60.1699 15.627 60.1699C15.1465 60.1699 14.6895 60.3438 14.2559 60.6914C14.1191 60.8008 14.0273 60.8555 13.9805 60.8555C13.918 60.8555 13.8867 60.8203 13.8867 60.75C13.8867 60.6406 13.9258 60.5215 14.0039 60.3926C14.2109 60.0449 14.4824 59.7812 14.8184 59.6016C15.1582 59.418 15.5352 59.3262 15.9492 59.3262C16.2656 59.3262 16.5449 59.3867 16.7871 59.5078ZM20.8359 57.0703V62.3027C20.8359 62.4512 20.8008 62.5723 20.7305 62.666C20.6289 62.7832 20.5078 62.8789 20.3672 62.9531C20.2305 63.0234 20.1035 63.0586 19.9863 63.0586C19.8496 63.0586 19.7812 62.9746 19.7812 62.8066V57.5742C19.7812 57.4258 19.8164 57.3066 19.8867 57.2168C19.9883 57.0996 20.1074 57.0039 20.2441 56.9297C20.3848 56.8555 20.5137 56.8184 20.6309 56.8184C20.7676 56.8184 20.8359 56.9023 20.8359 57.0703ZM20.8359 54.0176V54.8672C20.8359 55.0156 20.8008 55.1367 20.7305 55.2305C20.6289 55.3477 20.5078 55.4434 20.3672 55.5176C20.2305 55.5879 20.1035 55.623 19.9863 55.623C19.8496 55.623 19.7812 55.5391 19.7812 55.3711V54.5215C19.7812 54.3691 19.8164 54.25 19.8867 54.1641C19.9883 54.0469 20.1074 53.9512 20.2441 53.877C20.3848 53.8027 20.5137 53.7656 20.6309 53.7656C20.7676 53.7656 20.8359 53.8496 20.8359 54.0176ZM24.3164 62.8184C24.2266 62.9238 24.1133 63.0098 23.9766 63.0762C23.8398 63.1465 23.7285 63.1816 23.6426 63.1816C23.5176 63.1816 23.4551 63.1191 23.4551 62.9941C23.4551 62.9512 23.4629 62.9082 23.4785 62.8652L24.8438 58.4648C24.8828 58.3359 24.9434 58.2715 25.0254 58.2715C25.1348 58.2715 25.2617 58.5391 25.4062 59.0742C25.4336 59.1797 25.4473 59.2852 25.4473 59.3906C25.4473 59.5156 25.418 59.6836 25.3594 59.8945L24.6621 62.2324C24.6035 62.4277 24.4883 62.623 24.3164 62.8184ZM23.5957 61.4414C23.5449 61.6289 23.4766 61.7852 23.3906 61.9102C23.3086 62.0352 23.2363 62.0977 23.1738 62.0977C23.1152 62.0977 23.0684 62.0742 23.0332 62.0273C22.998 61.9766 22.9609 61.8887 22.9219 61.7637L21.7734 57.6621C21.7539 57.5996 21.7441 57.5371 21.7441 57.4746C21.7441 57.3301 21.8398 57.1855 22.0312 57.041C22.2266 56.8926 22.3848 56.8184 22.5059 56.8184C22.6191 56.8184 22.6992 56.9023 22.7461 57.0703L23.6426 60.4102C23.6816 60.5625 23.7012 60.7051 23.7012 60.8379C23.7012 60.998 23.666 61.1992 23.5957 61.4414ZM28.1543 62.7949C28.0566 62.9121 27.9414 63.0059 27.8086 63.0762C27.6758 63.1465 27.5527 63.1816 27.4395 63.1816C27.3145 63.1816 27.252 63.1172 27.252 62.9883C27.252 62.9492 27.2578 62.9082 27.2695 62.8652L28.8633 57.5742C28.9102 57.4102 28.9668 57.2793 29.0332 57.1816C29.1113 57.0723 29.2324 56.9844 29.3965 56.918C29.5645 56.8516 29.7148 56.8184 29.8477 56.8184C29.9023 56.8184 29.9453 56.834 29.9766 56.8652C30.0117 56.8965 30.0293 56.9375 30.0293 56.9883C30.0293 57.0039 30.0254 57.0312 30.0176 57.0703L28.4707 62.2559C28.4004 62.4551 28.2949 62.6348 28.1543 62.7949ZM27.3164 61.6582C27.1875 62.127 27.0566 62.3613 26.9238 62.3613C26.8691 62.3613 26.8242 62.3359 26.7891 62.2852C26.7539 62.2344 26.7168 62.1484 26.6777 62.0273L25.2188 57.6387C25.1953 57.5684 25.1836 57.5078 25.1836 57.457C25.1836 57.3086 25.2773 57.166 25.4648 57.0293C25.6523 56.8887 25.8047 56.8184 25.9219 56.8184C26.0312 56.8184 26.1113 56.9023 26.1621 57.0703L27.3281 60.7793C27.3711 60.9121 27.3926 61.043 27.3926 61.1719C27.3926 61.3047 27.3672 61.4668 27.3164 61.6582ZM31.9688 59.2676C31.9688 59.377 32.002 59.4473 32.0684 59.4785C32.1387 59.5059 32.2402 59.5195 32.373 59.5195C32.7129 59.5195 33.0039 59.4902 33.2461 59.4316C33.4883 59.373 33.6738 59.291 33.8027 59.1855C33.9316 59.0801 34.0234 58.9688 34.0781 58.8516C34.1367 58.7344 34.166 58.6055 34.166 58.4648C34.166 58.2227 34.082 58.0293 33.9141 57.8848C33.7461 57.7363 33.4766 57.6621 33.1055 57.6621C32.5234 57.6621 31.9766 57.8457 31.4648 58.2129C31.3125 58.3262 31.2168 58.3828 31.1777 58.3828C31.1113 58.3828 31.0781 58.3457 31.0781 58.2715C31.0781 58.1738 31.1348 58.0547 31.248 57.9141C31.459 57.6445 31.6992 57.4238 31.9688 57.252C32.2383 57.0801 32.4844 56.9648 32.707 56.9062C32.9297 56.8477 33.1504 56.8184 33.3691 56.8184C33.6504 56.8184 33.9043 56.8477 34.1309 56.9062C34.3574 56.9648 34.5586 57.0566 34.7344 57.1816C34.9102 57.3027 35.0469 57.4707 35.1445 57.6855C35.2422 57.8965 35.291 58.1445 35.291 58.4297C35.291 59.0391 35 59.5098 34.418 59.8418C33.8398 60.1699 33.0488 60.334 32.0449 60.334C31.7637 60.334 31.4453 60.3184 31.0898 60.2871C30.9141 60.2754 30.8262 60.1895 30.8262 60.0293C30.8262 59.5957 30.8887 59.2715 31.0137 59.0566C31.1387 58.8379 31.3008 58.6699 31.5 58.5527C31.6953 58.4395 31.8438 58.3828 31.9453 58.3828C32.0391 58.3828 32.0859 58.4414 32.0859 58.5586C32.0859 58.6055 32.0664 58.7207 32.0273 58.9043C31.9883 59.084 31.9688 59.2051 31.9688 59.2676ZM30.873 60.9023C30.873 60.6992 30.9668 60.5977 31.1543 60.5977H31.6582C31.7598 60.5977 31.8301 60.6172 31.8691 60.6562C31.9121 60.6953 31.9453 60.7812 31.9688 60.9141C32.1211 61.8633 32.6406 62.3379 33.5273 62.3379C33.75 62.3379 33.959 62.3105 34.1543 62.2559C34.3496 62.2012 34.5 62.1406 34.6055 62.0742C34.7148 62.0078 34.8145 61.9473 34.9043 61.8926C34.998 61.8379 35.0664 61.8105 35.1094 61.8105C35.1992 61.8105 35.2441 61.8594 35.2441 61.957C35.2441 62.0391 35.1992 62.1445 35.1094 62.2734C35.0195 62.4023 34.8906 62.5371 34.7227 62.6777C34.5586 62.8145 34.3301 62.9316 34.0371 63.0293C33.748 63.1309 33.4336 63.1816 33.0938 63.1816C32.3906 63.1816 31.8438 62.9707 31.4531 62.5488C31.0664 62.123 30.873 61.5742 30.873 60.9023ZM36.4805 62.8066V59.6543C36.4805 59.4355 36.5332 59.2676 36.6387 59.1504C36.7441 59.0293 36.8691 58.9219 37.0137 58.8281C37.1582 58.7305 37.2715 58.6816 37.3535 58.6816C37.4746 58.6816 37.5352 58.7656 37.5352 58.9336V62.3027C37.5352 62.5176 37.4375 62.6973 37.2422 62.8418C37.0508 62.9863 36.8652 63.0586 36.6855 63.0586C36.5488 63.0586 36.4805 62.9746 36.4805 62.8066ZM37.8574 57.3164C38.0801 57.1523 38.3125 57.0293 38.5547 56.9473C38.7969 56.8613 39.0137 56.8184 39.2051 56.8184C39.8848 56.8184 40.3828 57.0098 40.6992 57.3926C41.0156 57.7715 41.1738 58.4082 41.1738 59.3027V62.3027C41.1738 62.5137 41.0781 62.6934 40.8867 62.8418C40.6953 62.9863 40.5078 63.0586 40.3242 63.0586C40.1875 63.0586 40.1191 62.9746 40.1191 62.8066V60.4922C40.1191 60.125 40.1152 59.8477 40.1074 59.6602C40.1035 59.4727 40.0879 59.248 40.0605 58.9863C40.0371 58.7246 39.9961 58.5312 39.9375 58.4062C39.8789 58.2773 39.7988 58.1465 39.6973 58.0137C39.5996 57.8809 39.4707 57.7891 39.3105 57.7383C39.1504 57.6875 38.959 57.6621 38.7363 57.6621C38.2871 57.6621 37.6719 57.9609 36.8906 58.5586C36.7656 58.6562 36.668 58.7051 36.5977 58.7051C36.5195 58.7051 36.4805 58.6387 36.4805 58.5059V57.5742C36.4805 57.3633 36.5762 57.1855 36.7676 57.041C36.9629 56.8926 37.1504 56.8184 37.3301 56.8184C37.4668 56.8184 37.5352 56.9023 37.5352 57.0703V57.2168C37.5352 57.3574 37.5664 57.4277 37.6289 57.4277C37.6836 57.4277 37.7598 57.3906 37.8574 57.3164ZM42.5625 62.8066V59.6543C42.5625 59.4355 42.6152 59.2676 42.7207 59.1504C42.8262 59.0293 42.9512 58.9219 43.0957 58.8281C43.2402 58.7305 43.3535 58.6816 43.4355 58.6816C43.5566 58.6816 43.6172 58.7656 43.6172 58.9336V62.3027C43.6172 62.5176 43.5195 62.6973 43.3242 62.8418C43.1328 62.9863 42.9473 63.0586 42.7676 63.0586C42.6309 63.0586 42.5625 62.9746 42.5625 62.8066ZM43.9395 57.3164C44.1621 57.1523 44.3945 57.0293 44.6367 56.9473C44.8789 56.8613 45.0957 56.8184 45.2871 56.8184C45.9668 56.8184 46.4648 57.0098 46.7812 57.3926C47.0977 57.7715 47.2559 58.4082 47.2559 59.3027V62.3027C47.2559 62.5137 47.1602 62.6934 46.9688 62.8418C46.7773 62.9863 46.5898 63.0586 46.4062 63.0586C46.2695 63.0586 46.2012 62.9746 46.2012 62.8066V60.4922C46.2012 60.125 46.1973 59.8477 46.1895 59.6602C46.1855 59.4727 46.1699 59.248 46.1426 58.9863C46.1191 58.7246 46.0781 58.5312 46.0195 58.4062C45.9609 58.2773 45.8809 58.1465 45.7793 58.0137C45.6816 57.8809 45.5527 57.7891 45.3926 57.7383C45.2324 57.6875 45.041 57.6621 44.8184 57.6621C44.3691 57.6621 43.7539 57.9609 42.9727 58.5586C42.8477 58.6562 42.75 58.7051 42.6797 58.7051C42.6016 58.7051 42.5625 58.6387 42.5625 58.5059V57.5742C42.5625 57.3633 42.6582 57.1855 42.8496 57.041C43.0449 56.8926 43.2324 56.8184 43.4121 56.8184C43.5488 56.8184 43.6172 56.9023 43.6172 57.0703V57.2168C43.6172 57.3574 43.6484 57.4277 43.7109 57.4277C43.7656 57.4277 43.8418 57.3906 43.9395 57.3164ZM51.1875 61.4004V55.5352C51.1875 55.3711 51.2285 55.2402 51.3105 55.1426C51.4121 55.0215 51.5508 54.9121 51.7266 54.8145C51.9023 54.7129 52.0469 54.6621 52.1602 54.6621C52.2969 54.6621 52.3652 54.7461 52.3652 54.9141V61.4004C52.3652 61.541 52.3164 61.6348 52.2188 61.6816C52.125 61.7246 51.9785 61.7461 51.7793 61.7461C51.5605 61.7461 51.4062 61.7246 51.3164 61.6816C51.2305 61.6348 51.1875 61.541 51.1875 61.4004ZM51.4277 62.0391H55.4004C55.5684 62.0391 55.6523 62.0996 55.6523 62.2207C55.6523 62.2754 55.6113 62.375 55.5293 62.5195C55.4512 62.6641 55.3594 62.7852 55.2539 62.8828C55.168 62.9609 55.0254 63 54.8262 63H51.4277C51.2676 63 51.1875 62.916 51.1875 62.748V62.291C51.1875 62.123 51.2676 62.0391 51.4277 62.0391ZM57.5742 59.2676C57.5742 59.377 57.6074 59.4473 57.6738 59.4785C57.7441 59.5059 57.8457 59.5195 57.9785 59.5195C58.3184 59.5195 58.6094 59.4902 58.8516 59.4316C59.0938 59.373 59.2793 59.291 59.4082 59.1855C59.5371 59.0801 59.6289 58.9688 59.6836 58.8516C59.7422 58.7344 59.7715 58.6055 59.7715 58.4648C59.7715 58.2227 59.6875 58.0293 59.5195 57.8848C59.3516 57.7363 59.082 57.6621 58.7109 57.6621C58.1289 57.6621 57.582 57.8457 57.0703 58.2129C56.918 58.3262 56.8223 58.3828 56.7832 58.3828C56.7168 58.3828 56.6836 58.3457 56.6836 58.2715C56.6836 58.1738 56.7402 58.0547 56.8535 57.9141C57.0645 57.6445 57.3047 57.4238 57.5742 57.252C57.8438 57.0801 58.0898 56.9648 58.3125 56.9062C58.5352 56.8477 58.7559 56.8184 58.9746 56.8184C59.2559 56.8184 59.5098 56.8477 59.7363 56.9062C59.9629 56.9648 60.1641 57.0566 60.3398 57.1816C60.5156 57.3027 60.6523 57.4707 60.75 57.6855C60.8477 57.8965 60.8965 58.1445 60.8965 58.4297C60.8965 59.0391 60.6055 59.5098 60.0234 59.8418C59.4453 60.1699 58.6543 60.334 57.6504 60.334C57.3691 60.334 57.0508 60.3184 56.6953 60.2871C56.5195 60.2754 56.4316 60.1895 56.4316 60.0293C56.4316 59.5957 56.4941 59.2715 56.6191 59.0566C56.7441 58.8379 56.9062 58.6699 57.1055 58.5527C57.3008 58.4395 57.4492 58.3828 57.5508 58.3828C57.6445 58.3828 57.6914 58.4414 57.6914 58.5586C57.6914 58.6055 57.6719 58.7207 57.6328 58.9043C57.5938 59.084 57.5742 59.2051 57.5742 59.2676ZM56.4785 60.9023C56.4785 60.6992 56.5723 60.5977 56.7598 60.5977H57.2637C57.3652 60.5977 57.4355 60.6172 57.4746 60.6562C57.5176 60.6953 57.5508 60.7812 57.5742 60.9141C57.7266 61.8633 58.2461 62.3379 59.1328 62.3379C59.3555 62.3379 59.5645 62.3105 59.7598 62.2559C59.9551 62.2012 60.1055 62.1406 60.2109 62.0742C60.3203 62.0078 60.4199 61.9473 60.5098 61.8926C60.6035 61.8379 60.6719 61.8105 60.7148 61.8105C60.8047 61.8105 60.8496 61.8594 60.8496 61.957C60.8496 62.0391 60.8047 62.1445 60.7148 62.2734C60.625 62.4023 60.4961 62.5371 60.3281 62.6777C60.1641 62.8145 59.9355 62.9316 59.6426 63.0293C59.3535 63.1309 59.0391 63.1816 58.6992 63.1816C57.9961 63.1816 57.4492 62.9707 57.0586 62.5488C56.6719 62.123 56.4785 61.5742 56.4785 60.9023ZM62.0859 62.8066V59.6543C62.0859 59.4316 62.1387 59.2637 62.2441 59.1504C62.3535 59.0254 62.4785 58.916 62.6191 58.8223C62.7598 58.7285 62.873 58.6816 62.959 58.6816C63.0801 58.6816 63.1406 58.7656 63.1406 58.9336V62.3027C63.1406 62.5137 63.043 62.6934 62.8477 62.8418C62.6562 62.9863 62.4707 63.0586 62.291 63.0586C62.1543 63.0586 62.0859 62.9746 62.0859 62.8066ZM65.9707 57.4043C66.0176 57.4473 66.0566 57.4805 66.0879 57.5039C66.1191 57.5273 66.1465 57.543 66.1699 57.5508C66.1973 57.5586 66.2285 57.5625 66.2637 57.5625C66.3574 57.5625 66.5371 57.4785 66.8027 57.3105C67.3184 56.9824 67.7715 56.8184 68.1621 56.8184C68.7715 56.8184 69.2246 57.0117 69.5215 57.3984C69.8223 57.7812 69.9727 58.416 69.9727 59.3027V62.2676C69.9727 62.4785 69.875 62.6641 69.6797 62.8242C69.4883 62.9805 69.3047 63.0586 69.1289 63.0586C68.9922 63.0586 68.9238 62.9746 68.9238 62.8066V60.4922C68.9238 60.2344 68.9219 60.0234 68.918 59.8594C68.9141 59.6953 68.9062 59.5117 68.8945 59.3086C68.8828 59.1055 68.8652 58.9414 68.8418 58.8164C68.8184 58.6914 68.7852 58.5586 68.7422 58.418C68.7031 58.2773 68.6523 58.168 68.5898 58.0898C68.5273 58.0078 68.4512 57.9316 68.3613 57.8613C68.2754 57.7871 68.1719 57.7363 68.0508 57.709C67.9336 57.6777 67.7988 57.6621 67.6465 57.6621C67.373 57.6621 67.1055 57.7363 66.8438 57.8848C66.582 58.0293 66.2207 58.2832 65.7598 58.6465C65.6387 58.7363 65.5508 58.7812 65.4961 58.7812C65.4492 58.7812 65.4082 58.7422 65.373 58.6641C65.3574 58.6289 65.3418 58.582 65.3262 58.5234C65.2402 58.2266 65.123 58.0098 64.9746 57.873C64.8262 57.7324 64.6035 57.6621 64.3066 57.6621C64.0762 57.6621 63.8203 57.7305 63.5391 57.8672C63.2617 58.0039 62.9141 58.2344 62.4961 58.5586C62.3672 58.6562 62.2715 58.7051 62.209 58.7051C62.127 58.7051 62.0859 58.6426 62.0859 58.5176V57.5566C62.0859 57.3496 62.1836 57.1758 62.3789 57.0352C62.5742 56.8906 62.7617 56.8184 62.9414 56.8184C63.0781 56.8184 63.1465 56.9023 63.1465 57.0703V57.2168C63.1465 57.3535 63.1758 57.4219 63.2344 57.4219C63.2734 57.4219 63.3516 57.3848 63.4688 57.3105C63.9648 56.9824 64.3965 56.8184 64.7637 56.8184C64.9824 56.8184 65.166 56.8457 65.3145 56.9004C65.4668 56.9551 65.6855 57.123 65.9707 57.4043ZM65.4727 62.8066V59.6543C65.4727 59.4355 65.5254 59.2676 65.6309 59.1504C65.7363 59.0293 65.8613 58.9219 66.0059 58.8281C66.1504 58.7305 66.2637 58.6816 66.3457 58.6816C66.4668 58.6816 66.5273 58.7656 66.5273 58.9336V62.2676C66.5273 62.4434 66.4922 62.5762 66.4219 62.666C66.3242 62.7832 66.2051 62.8789 66.0645 62.9531C65.9238 63.0234 65.7949 63.0586 65.6777 63.0586C65.541 63.0586 65.4727 62.9746 65.4727 62.8066ZM73.6816 56.8184C74.0098 56.8184 74.3047 56.8613 74.5664 56.9473C74.8281 57.0332 75.0488 57.1719 75.2285 57.3633C75.4082 57.5508 75.5449 57.7949 75.6387 58.0957C75.7363 58.3926 75.7852 58.752 75.7852 59.1738V62.3496C75.7852 62.4473 75.7539 62.5391 75.6914 62.625C75.6328 62.7109 75.5586 62.7871 75.4688 62.8535C75.3828 62.916 75.2891 62.9648 75.1875 63C75.0898 63.0391 75.0039 63.0586 74.9297 63.0586C74.793 63.0586 74.7246 62.9746 74.7246 62.8066V59.3906C74.7246 58.2383 74.2676 57.6621 73.3535 57.6621C72.8223 57.6621 72.3398 57.8086 71.9062 58.1016C71.7344 58.2148 71.623 58.2715 71.5723 58.2715C71.5137 58.2715 71.4844 58.2402 71.4844 58.1777C71.4844 58.0684 71.5449 57.9395 71.666 57.791C72.1973 57.1426 72.8691 56.8184 73.6816 56.8184ZM74.2793 62.6719C74.1152 62.8203 73.9121 62.9414 73.6699 63.0352C73.4277 63.1328 73.1953 63.1816 72.9727 63.1816C72.4531 63.1816 72.0547 63.0449 71.7773 62.7715C71.5039 62.4941 71.3672 62.1543 71.3672 61.752C71.3672 61.4629 71.4668 61.2422 71.666 61.0898C71.8457 60.9492 72.002 60.8789 72.1348 60.8789C72.1777 60.8789 72.2148 60.8945 72.2461 60.9258C72.2773 60.957 72.293 61.0039 72.293 61.0664C72.293 61.5117 72.3691 61.8359 72.5215 62.0391C72.6738 62.2383 72.9453 62.3379 73.3359 62.3379C73.4531 62.3379 73.5957 62.3184 73.7637 62.2793C73.9316 62.2363 74.0742 62.1797 74.1914 62.1094C74.2617 62.0664 74.3145 62.0449 74.3496 62.0449C74.4043 62.0449 74.4316 62.1172 74.4316 62.2617C74.4316 62.4414 74.3809 62.5781 74.2793 62.6719ZM74.2324 59.5078C74.3066 59.5469 74.3574 59.5996 74.3848 59.666C74.4121 59.7285 74.4258 59.8477 74.4258 60.0234C74.4258 60.1797 74.4121 60.293 74.3848 60.3633C74.3613 60.4297 74.3164 60.4629 74.25 60.4629C74.207 60.4629 74.1465 60.4453 74.0684 60.4102C73.7012 60.25 73.3691 60.1699 73.0723 60.1699C72.5918 60.1699 72.1348 60.3438 71.7012 60.6914C71.5645 60.8008 71.4727 60.8555 71.4258 60.8555C71.3633 60.8555 71.332 60.8203 71.332 60.75C71.332 60.6406 71.3711 60.5215 71.4492 60.3926C71.6562 60.0449 71.9277 59.7812 72.2637 59.6016C72.6035 59.418 72.9805 59.3262 73.3945 59.3262C73.7109 59.3262 73.9902 59.3867 74.2324 59.5078ZM78.2812 57.0703V62.3027C78.2812 62.4512 78.2461 62.5723 78.1758 62.666C78.0742 62.7832 77.9531 62.8789 77.8125 62.9531C77.6758 63.0234 77.5488 63.0586 77.4316 63.0586C77.2949 63.0586 77.2266 62.9746 77.2266 62.8066V57.5742C77.2266 57.4258 77.2617 57.3066 77.332 57.2168C77.4336 57.0996 77.5527 57.0039 77.6895 56.9297C77.8301 56.8555 77.959 56.8184 78.0762 56.8184C78.2129 56.8184 78.2812 56.9023 78.2812 57.0703ZM78.2812 54.0176V54.8672C78.2812 55.0156 78.2461 55.1367 78.1758 55.2305C78.0742 55.3477 77.9531 55.4434 77.8125 55.5176C77.6758 55.5879 77.5488 55.623 77.4316 55.623C77.2949 55.623 77.2266 55.5391 77.2266 55.3711V54.5215C77.2266 54.3691 77.2617 54.25 77.332 54.1641C77.4336 54.0469 77.5527 53.9512 77.6895 53.877C77.8301 53.8027 77.959 53.7656 78.0762 53.7656C78.2129 53.7656 78.2812 53.8496 78.2812 54.0176ZM79.7344 62.8066V59.8535C79.7344 59.6348 79.7871 59.4668 79.8926 59.3496C79.998 59.2285 80.123 59.1191 80.2676 59.0215C80.4121 58.9199 80.5254 58.8691 80.6074 58.8691C80.7285 58.8691 80.7891 58.9531 80.7891 59.1211V62.3203C80.7891 62.5352 80.6934 62.7129 80.502 62.8535C80.3105 62.9902 80.123 63.0586 79.9395 63.0586C79.8027 63.0586 79.7344 62.9746 79.7344 62.8066ZM82.2539 56.8184C82.4766 56.8184 82.709 56.8672 82.9512 56.9648C83.1973 57.0625 83.3203 57.1895 83.3203 57.3457C83.3203 57.4707 83.2383 57.6016 83.0742 57.7383C82.9102 57.8711 82.7656 57.9375 82.6406 57.9375C82.5352 57.9375 82.3867 57.8887 82.1953 57.791C82.0156 57.7051 81.8516 57.6621 81.7031 57.6621C81.6094 57.6621 81.5195 57.6777 81.4336 57.709C81.3477 57.7363 81.248 57.793 81.1348 57.8789C81.0215 57.9609 80.9277 58.0332 80.8535 58.0957C80.7832 58.1543 80.6602 58.2656 80.4844 58.4297C80.3125 58.5898 80.1777 58.7129 80.0801 58.7988C79.9941 58.873 79.9219 58.9102 79.8633 58.9102C79.7773 58.9102 79.7344 58.8379 79.7344 58.6934V57.5566C79.7344 57.3457 79.8301 57.1699 80.0215 57.0293C80.2168 56.8887 80.4043 56.8184 80.584 56.8184C80.7207 56.8184 80.7891 56.9023 80.7891 57.0703V57.3984C80.7891 57.5234 80.8164 57.5859 80.8711 57.5859C80.9141 57.5859 80.9824 57.5391 81.0762 57.4453C81.4941 57.0273 81.8867 56.8184 82.2539 56.8184ZM85.0078 59.2676C85.0078 59.377 85.041 59.4473 85.1074 59.4785C85.1777 59.5059 85.2793 59.5195 85.4121 59.5195C85.752 59.5195 86.043 59.4902 86.2852 59.4316C86.5273 59.373 86.7129 59.291 86.8418 59.1855C86.9707 59.0801 87.0625 58.9688 87.1172 58.8516C87.1758 58.7344 87.2051 58.6055 87.2051 58.4648C87.2051 58.2227 87.1211 58.0293 86.9531 57.8848C86.7852 57.7363 86.5156 57.6621 86.1445 57.6621C85.5625 57.6621 85.0156 57.8457 84.5039 58.2129C84.3516 58.3262 84.2559 58.3828 84.2168 58.3828C84.1504 58.3828 84.1172 58.3457 84.1172 58.2715C84.1172 58.1738 84.1738 58.0547 84.2871 57.9141C84.498 57.6445 84.7383 57.4238 85.0078 57.252C85.2773 57.0801 85.5234 56.9648 85.7461 56.9062C85.9688 56.8477 86.1895 56.8184 86.4082 56.8184C86.6895 56.8184 86.9434 56.8477 87.1699 56.9062C87.3965 56.9648 87.5977 57.0566 87.7734 57.1816C87.9492 57.3027 88.0859 57.4707 88.1836 57.6855C88.2812 57.8965 88.3301 58.1445 88.3301 58.4297C88.3301 59.0391 88.0391 59.5098 87.457 59.8418C86.8789 60.1699 86.0879 60.334 85.084 60.334C84.8027 60.334 84.4844 60.3184 84.1289 60.2871C83.9531 60.2754 83.8652 60.1895 83.8652 60.0293C83.8652 59.5957 83.9277 59.2715 84.0527 59.0566C84.1777 58.8379 84.3398 58.6699 84.5391 58.5527C84.7344 58.4395 84.8828 58.3828 84.9844 58.3828C85.0781 58.3828 85.125 58.4414 85.125 58.5586C85.125 58.6055 85.1055 58.7207 85.0664 58.9043C85.0273 59.084 85.0078 59.2051 85.0078 59.2676ZM83.9121 60.9023C83.9121 60.6992 84.0059 60.5977 84.1934 60.5977H84.6973C84.7988 60.5977 84.8691 60.6172 84.9082 60.6562C84.9512 60.6953 84.9844 60.7812 85.0078 60.9141C85.1602 61.8633 85.6797 62.3379 86.5664 62.3379C86.7891 62.3379 86.998 62.3105 87.1934 62.2559C87.3887 62.2012 87.5391 62.1406 87.6445 62.0742C87.7539 62.0078 87.8535 61.9473 87.9434 61.8926C88.0371 61.8379 88.1055 61.8105 88.1484 61.8105C88.2383 61.8105 88.2832 61.8594 88.2832 61.957C88.2832 62.0391 88.2383 62.1445 88.1484 62.2734C88.0586 62.4023 87.9297 62.5371 87.7617 62.6777C87.5977 62.8145 87.3691 62.9316 87.0762 63.0293C86.7871 63.1309 86.4727 63.1816 86.1328 63.1816C85.4297 63.1816 84.8828 62.9707 84.4922 62.5488C84.1055 62.123 83.9121 61.5742 83.9121 60.9023Z" fill="black"/>
<line x1="54.5" y1="49" x2="54.5" stroke="black"/>
<mask id="path-4-inside-1_0_1" fill="white">
<path d="M0 52H94V66H0V52Z"/>
</mask>
<path d="M0 53H94V51H0V53Z" fill="black" mask="url(#path-4-inside-1_0_1)"/>
<mask id="path-6-inside-2_0_1" fill="white">
<path d="M0 52H94V66H0V52Z"/>
</mask>
<path d="M94 65H0V67H94V65Z" fill="black" mask="url(#path-6-inside-2_0_1)"/>
</svg>
